# xmcd CD database file
#
# Track frame offsets:
#	150
#	24417
#	44917
#	56460
#	78780
#	93497
#	111107
#	132002
#	156340
#	171222
#
# Disc length: 2606 seconds
#
# Revision: 1
# Processed by: cddbd v1.5.1PL0 Copyright (c) Steve Scherf et al.
# Submitted via: CDex 1.51
#
DISCID=7b0a2c0a
DTITLE=谷口 深雪 - ソノムコウへ
DYEAR=2004
DGENRE=JPop
TTITLE0=紡ぐ
TTITLE1=きみがわらえば
TTITLE2=その向こうへ
TTITLE3=花
TTITLE4=ピース
TTITLE5=蒼
TTITLE6=星／月
TTITLE7=かげろう
TTITLE8=リアルタイム
TTITLE9=ひとつに
EXTD=YEAR: 2004
EXTT0=
EXTT1=
EXTT2=
EXTT3=
EXTT4=
EXTT5=
EXTT6=
EXTT7=
EXTT8=
EXTT9=
PLAYORDER=
